<svg xmlns="http://www.w3.org/2000/svg" version="1.1" xmlns:xlink="http://www.w3.org/1999/xlink" width="2000" height="754" viewBox="0 0 2000 754"><svg xml:space="preserve" width="2000" height="754" data-version="2" data-id="lg_o2uisYn70cKC3CxJYF" viewBox="0 0 723 754" x="0" y="0"><rect width="100%" height="100%" fill="transparent"></rect><g transform="translate(93.29 611.34)"><linearGradient id="a" x1="-1.55" x2="9.24" y1="0" y2="0" gradientUnits="objectBoundingBox"><stop offset="0%" stop-color="#ffa62e"></stop><stop offset="100%" stop-color="#f71b3d"></stop></linearGradient><path fill="url(#a)" d="M134.6 667.54q-5.65 0-10.57-.73t-8.95-1.9q-4.04-1.18-7.08-2.45l-1.72-18.29q5.02 2.35 11.88 4.35 6.85 2 14.54 2 7.43 0 10.57-1.87 3.14-1.87 3.14-5.87v-.45q0-2.66-1.43-4.35-1.42-1.68-4.76-3.11-3.33-1.43-8.98-3.08-8.51-2.54-14.2-5.65-5.68-3.11-8.47-7.78-2.8-4.67-2.8-11.84v-.83q0-11.05 7.53-16.89 7.52-5.84 22.13-5.84 8.76 0 15.14 1.52 6.38 1.53 10.83 3.62l1.71 17.02q-4.89-2.35-11.08-3.97t-13.24-1.62q-4.95 0-7.78.83-2.82.83-3.96 2.38-1.15 1.56-1.15 3.78v.25q0 2.29 1.3 4 1.31 1.72 4.7 3.31 3.4 1.58 9.69 3.42 8.44 2.48 14 5.31 5.55 2.82 8.32 7.3 2.76 4.48 2.76 11.91v1.01q0 12.26-7.94 18.38-7.94 6.13-24.13 6.13" paint-order="stroke" transform="translate(-136.22 -625.25)"></path></g><rect width="60.9" height="84.58" x="-30.45" y="-42.29" fill="none" rx="0" ry="0" transform="translate(93.79 611.84)"></rect><g transform="translate(169.17 611.34)"><linearGradient id="b" x1="-2.11" x2="6.64" y1="0" y2="0" gradientUnits="objectBoundingBox"><stop offset="0%" stop-color="#ffa62e"></stop><stop offset="100%" stop-color="#f71b3d"></stop></linearGradient><path fill="url(#b)" d="M197.85 665.83h-19.88v-81.15h19.88Zm48.38 0H226.3v-81.15h19.93Zm-56.83-49.79h44.39v16.58H189.4Z" paint-order="stroke" transform="translate(-212.1 -625.25)"></path></g><rect width="68.26" height="81.15" x="-34.13" y="-40.58" fill="none" rx="0" ry="0" transform="translate(169.67 611.84)"></rect><g transform="translate(227.94 611.34)"><linearGradient id="c" x1="-7.43" x2="14.88" y1="0" y2="0" gradientUnits="objectBoundingBox"><stop offset="0%" stop-color="#ffa62e"></stop><stop offset="100%" stop-color="#f71b3d"></stop></linearGradient><path fill="url(#c)" d="M280.84 665.83H260.9v-81.15h19.94Z" paint-order="stroke" transform="translate(-270.87 -625.25)"></path></g><rect width="19.94" height="81.15" x="-9.97" y="-40.58" fill="none" rx="0" ry="0" transform="translate(228.44 611.84)"></rect><g transform="translate(283.98 611.34)"><linearGradient id="d" x1="-4.15" x2="6.32" y1="0" y2="0" gradientUnits="objectBoundingBox"><stop offset="0%" stop-color="#ffa62e"></stop><stop offset="100%" stop-color="#f71b3d"></stop></linearGradient><path fill="url(#d)" d="m311.89 665.83-22.22-81.15h20.57l15.94 66.35h1.46l16-66.35h20.51l-22.16 81.15Z" paint-order="stroke" transform="translate(-326.91 -625.25)"></path></g><rect width="74.48" height="81.15" x="-37.24" y="-40.58" fill="none" rx="0" ry="0" transform="translate(284.48 611.84)"></rect><g transform="translate(355.32 611.34)"><linearGradient id="e" x1="-4.59" x2="4.63" y1="0" y2="0" gradientUnits="objectBoundingBox"><stop offset="0%" stop-color="#ffa62e"></stop><stop offset="100%" stop-color="#f71b3d"></stop></linearGradient><path fill="url(#e)" d="m360.15 665.83 23.24-81.15h29.85l23.11 81.15h-20.06l-17.21-68.07h-1.46l-17.4 68.07Zm19.75-19.12v-15.43h36.58v15.43Z" paint-order="stroke" transform="translate(-398.25 -625.25)"></path></g><rect width="76.2" height="81.15" x="-38.1" y="-40.58" fill="none" rx="0" ry="0" transform="translate(355.82 611.84)"></rect><g transform="translate(435.69 611.34)"><linearGradient id="f" x1="-5.59" x2="3.64" y1="0" y2="0" gradientUnits="objectBoundingBox"><stop offset="0%" stop-color="#ffa62e"></stop><stop offset="100%" stop-color="#f71b3d"></stop></linearGradient><path fill="url(#f)" d="M459.09 665.83v-16.64h17.71q7.62 0 11.43-4.13 3.81-4.12 3.81-11.81V617q0-7.69-3.81-11.78-3.81-4.1-11.43-4.1h-17.78v-16.44h18.48q17.34 0 25.94 8.35 8.61 8.35 8.61 23.97v16.32q0 15.68-8.58 24.09-8.57 8.42-25.97 8.42Zm-13.91 0v-81.15h19.56v81.15Z" paint-order="stroke" transform="translate(-478.62 -625.25)"></path></g><rect width="66.87" height="81.15" x="-33.44" y="-40.58" fill="none" rx="0" ry="0" transform="translate(436.19 611.84)"></rect><g transform="translate(514.2 611.44)"><linearGradient id="g" x1="-6.5" x2="2.58" y1="0" y2="0" gradientUnits="objectBoundingBox"><stop offset="0%" stop-color="#ffa62e"></stop><stop offset="100%" stop-color="#f71b3d"></stop></linearGradient><path fill="url(#g)" d="M557.13 667.8q-17.72 0-26.57-8.89-8.86-8.89-8.86-25.59v-15.43q0-16.77 8.92-25.88t26.51-9.11q17.59 0 26.51 9.11 8.92 9.11 8.92 25.88v15.43q0 16.7-8.89 25.59t-26.54 8.89m0-16.39q7.68 0 11.43-4.5 3.75-4.51 3.75-12.64v-17.4q0-8.51-3.75-13.08t-11.43-4.57q-7.68 0-11.43 4.57t-3.75 13.08v17.4q0 8.13 3.75 12.64 3.75 4.5 11.43 4.5" paint-order="stroke" transform="translate(-557.13 -625.35)"></path></g><rect width="70.86" height="84.9" x="-35.43" y="-42.45" fill="none" rx="0" ry="0" transform="translate(514.7 611.94)"></rect><g transform="translate(604.6 611.34)"><linearGradient id="h" x1="-5.95" x2="1.05" y1="0" y2="0" gradientUnits="objectBoundingBox"><stop offset="0%" stop-color="#ffa62e"></stop><stop offset="100%" stop-color="#f71b3d"></stop></linearGradient><path fill="url(#h)" d="m603.49 665.83 2.54-81.15h27.68l13.4 48.38h.83l13.39-48.38h27.69l2.54 81.15h-19.24l-.57-26.61-.57-32.38h-.96l-13.9 49.46h-17.66l-13.9-49.46h-1.02l-.51 32.45-.5 26.54Z" paint-order="stroke" transform="translate(-647.52 -625.25)"></path></g><rect width="88.07" height="81.15" x="-44.03" y="-40.58" fill="none" rx="0" ry="0" transform="translate(605.1 611.84)"></rect><path fill="#181a2b" d="M7.2 732.628h5.61v-10.83h10.86q6.16 0 8.29-3.76 2.13-3.75 2.13-9.42 0-5.63-2.13-9.37-2.13-3.74-8.29-3.74H7.2Zm5.61-14.74v-18.48h9.16q3.63 0 5.08 2.38 1.46 2.38 1.46 6.86t-1.46 6.86q-1.45 2.38-5.08 2.38Z"></path><rect width="26.89" height="37.12" x="-13.45" y="-18.56" fill="none" rx="0" ry="0" transform="translate(21.14 714.57)"></rect><path fill="#181a2b" d="M40.03 732.628h5.59v-43.17h-5.59Z"></path><rect width="5.59" height="43.17" x="-2.79" y="-21.59" fill="none" rx="0" ry="0" transform="translate(43.33 711.54)"></rect><path fill="#181a2b" d="M62.53 732.928q2.39 0 4.28-.42 1.88-.43 3.25-1.1 1.38-.68 2.26-1.45.88-.77 1.24-1.45l.46 4.12h4.65v-20.73q0-4.4-1.58-7.07t-4.61-3.88q-3.02-1.21-7.37-1.21-2.58 0-4.84.54-2.25.53-4.02 1.69-1.78 1.15-2.97 3.02-1.2 1.87-1.64 4.57l5.44 1.46q.42-2.73 1.5-4.36 1.09-1.64 2.77-2.38 1.67-.74 3.79-.74 2.45 0 4.24.82 1.78.83 2.75 2.6.96 1.77.96 4.66v1.84H62.45q-2.56 0-4.62.47-2.07.47-3.51 1.55-1.44 1.09-2.21 2.95-.77 1.85-.77 4.66 0 2.91.78 4.82.78 1.92 2.28 3.02 1.5 1.1 3.55 1.55 2.05.45 4.58.45m1.21-3.65q-1.4 0-2.64-.29-1.24-.29-2.17-.98-.94-.69-1.45-1.92-.51-1.24-.51-3.22 0-1.93.53-3.16.52-1.24 1.44-1.92.92-.67 2.16-.93 1.24-.26 2.64-.26h9.27v8.5q-.47 1.01-1.71 1.98-1.24.96-3.15 1.58-1.91.62-4.41.62"></path><rect width="27.33" height="33.19" x="-13.66" y="-16.59" fill="none" rx="0" ry="0" transform="translate(65.5 716.83)"></rect><path fill="#181a2b" d="M97.54 732.908q6.84 0 9.77-3.68 2.93-3.67 3.21-7.49l-4.98-1.7q-.11 3.6-2.19 6.28-2.07 2.68-5.81 2.68-3.8 0-6.18-2.97t-2.38-9.68q0-7.15 2.36-9.93 2.35-2.77 6.2-2.77 3.76 0 5.83 2.48 2.06 2.49 2.17 6.59l4.98-1.65q-.28-4.29-3.19-7.81-2.92-3.52-9.79-3.52-7.51 0-10.87 4.11-3.35 4.11-3.35 12.5 0 8 3.35 12.28 3.36 4.28 10.87 4.28"></path><rect width="27.2" height="33.17" x="-13.6" y="-16.59" fill="none" rx="0" ry="0" transform="translate(97.42 716.82)"></rect><path fill="#181a2b" d="M129.55 732.908v-3.69q-4.18 0-6.52-3.05-2.37-3-2.37-9.9 0-7.29 2.45-10.09 2.42-2.78 6.35-2.78 4.05 0 6.3 2.64 1.95 2.47 2.17 8.47h-17.87v3.46h23.37q.11-.82.11-1.78 0-8.17-3.24-12.32-3.27-4.16-10.84-4.16-7.34 0-10.75 4.16-3.44 4.12-3.44 12.4 0 7.81 3.36 12.24 3.33 4.4 10.92 4.4m0-3.69v3.69q4.12 0 6.82-1.08 2.69-1.07 4.4-3.43 1.67-2.34 2.14-5.7l-5-1.34q-.47 2.42-1.41 4.34-.99 1.93-2.77 2.72-1.79.8-4.18.8"></path><rect width="28.27" height="33.2" x="-14.13" y="-16.6" fill="none" rx="0" ry="0" transform="translate(129.9 716.8)"></rect><path fill="#181a2b" d="M174.4 732.628h5.61v-14.57l13.2-22.55h-6.13l-9.85 17.95h-.03l-9.9-17.95h-6.13l13.23 22.52Z"></path><rect width="32.04" height="37.12" x="-16.02" y="-18.56" fill="none" rx="0" ry="0" transform="translate(177.69 714.57)"></rect><path fill="#181a2b" d="M209.79 732.848q7.32 0 10.82-4.06 3.51-4.05 3.51-12.55t-3.51-12.53q-3.5-4.02-10.82-4.02-7.29 0-10.81 4.02-3.52 4.03-3.52 12.53t3.52 12.55q3.52 4.06 10.81 4.06m0-3.82q-3.82 0-6.3-2.68-2.47-2.68-2.47-10.08t2.47-10.07q2.48-2.66 6.3-2.66t6.3 2.66q2.47 2.67 2.47 10.07t-2.47 10.08q-2.48 2.68-6.3 2.68"></path><rect width="28.66" height="33.16" x="-14.33" y="-16.58" fill="none" rx="0" ry="0" transform="translate(210.29 716.77)"></rect><path fill="#181a2b" d="M250.99 732.628h4.31v-32.59h-5.55v27.09Zm-16.26-32.61h-5.55v18.81q0 6.65 2.32 10.38 2.33 3.72 8.05 3.72 5.94 0 9.44-3.56 3.51-3.56 3.51-7.55l-2.72-1.62q0 3.85-2.41 6.34-2.41 2.49-5.87 2.49-3.44 0-5.1-2.37-1.67-2.36-1.67-8.05Z"></path><rect width="26.12" height="32.91" x="-13.06" y="-16.45" fill="none" rx="0" ry="0" transform="translate(242.74 716.97)"></rect><path fill="#181a2b" d="M281.1 715.218h5.55q0-8.05-2.15-11.75-2.16-3.7-7.72-3.7-5.39 0-8.58 2.94-3.19 2.94-3.19 7.12l2.15 1.57q0-3 2.03-5.38 2.04-2.37 5.58-2.37 3.11 0 4.72 2.43 1.61 2.43 1.61 9.14m-19.47 17.41h5.55v-26.29l-1.18-6.3h-4.37Z"></path><rect width="25.02" height="32.86" x="-12.51" y="-16.43" fill="none" rx="0" ry="0" transform="translate(274.64 716.7)"></rect><path fill="#181a2b" d="M316.85 732.628h5.64v-33.22h11.35v-3.9h-28.38v3.9h11.39Z"></path><rect width="28.38" height="37.12" x="-14.19" y="-18.56" fill="none" rx="0" ry="0" transform="translate(320.15 714.57)"></rect><path fill="#181a2b" d="M355.18 715.218h5.56q0-8.05-2.16-11.75-2.16-3.7-7.71-3.7-5.39 0-8.58 2.94-3.19 2.94-3.19 7.12l2.14 1.57q0-3 2.04-5.38 2.03-2.37 5.58-2.37 3.11 0 4.72 2.43 1.6 2.43 1.6 9.14m-19.47 17.41h5.56v-26.29l-1.18-6.3h-4.38Z"></path><rect width="25.03" height="32.86" x="-12.52" y="-16.43" fill="none" rx="0" ry="0" transform="translate(348.73 716.7)"></rect><path fill="#181a2b" d="M367.56 732.628h5.58v-32.61h-5.58Zm0-41.52v4.92h5.58v-4.92Z"></path><rect width="5.58" height="41.52" x="-2.79" y="-20.76" fill="none" rx="0" ry="0" transform="translate(370.85 712.37)"></rect><path fill="#181a2b" d="M393 745.388q4.23 0 7.15-1.22 2.91-1.23 4.8-4.24 1.88-3.01 1.88-8.23v-31.66h-4.15l-1.43 6.66v25.52q0 5.64-2.2 7.62-2.2 1.98-5.86 1.98-2.23 0-3.95-.73-1.72-.73-2.69-2.29-.98-1.55-1.17-4.13h-5.47q.44 5.91 4.08 8.31 3.64 2.41 9.01 2.41m-2.01-12.54q5.33 0 9.02-2.64 3.68-2.64 3.68-5.61l-2.44-3q0 2.86-2.49 5.12-2.49 2.25-5.96 2.25-3.68 0-5.83-2.68-2.14-2.68-2.14-9.99 0-7.32 2.14-10 2.15-2.68 5.83-2.68 3.47 0 5.96 2.24 2.49 2.24 2.49 5.07l2.39-2.8q0-2.89-3.69-5.64-3.68-2.75-9.02-2.75-5.85 0-8.78 4.1-2.93 4.1-2.93 12.43t2.96 12.46q2.95 4.12 8.81 4.12"></path><rect width="27.61" height="45.65" x="-13.8" y="-22.82" fill="none" rx="0" ry="0" transform="translate(393.52 723.06)"></rect><path fill="#181a2b" d="M425.94 745.388q4.24 0 7.15-1.22 2.92-1.23 4.8-4.24 1.88-3.01 1.88-8.23v-31.66h-4.15l-1.43 6.66v25.52q0 5.64-2.2 7.62-2.2 1.98-5.86 1.98-2.22 0-3.94-.73-1.72-.73-2.7-2.29-.97-1.55-1.17-4.13h-5.47q.44 5.91 4.09 8.31 3.64 2.41 9 2.41m-2.01-12.54q5.34 0 9.02-2.64 3.69-2.64 3.69-5.61l-2.45-3q0 2.86-2.49 5.12-2.49 2.25-5.95 2.25-3.69 0-5.83-2.68-2.15-2.68-2.15-9.99 0-7.32 2.15-10 2.14-2.68 5.83-2.68 3.46 0 5.95 2.24t2.49 5.07l2.39-2.8q0-2.89-3.68-5.64-3.69-2.75-9.02-2.75-5.86 0-8.79 4.1-2.93 4.1-2.93 12.43t2.96 12.46q2.96 4.12 8.81 4.12"></path><rect width="27.61" height="45.65" x="-13.8" y="-22.82" fill="none" rx="0" ry="0" transform="translate(426.46 723.06)"></rect><path fill="#181a2b" d="M459.44 732.908v-3.69q-4.18 0-6.52-3.05-2.37-3-2.37-9.9 0-7.29 2.45-10.09 2.42-2.78 6.35-2.78 4.05 0 6.3 2.64 1.95 2.47 2.17 8.47h-17.87v3.46h23.37q.11-.82.11-1.78 0-8.17-3.24-12.32-3.27-4.16-10.84-4.16-7.34 0-10.75 4.16-3.44 4.12-3.44 12.4 0 7.81 3.36 12.24 3.33 4.4 10.92 4.4m0-3.69v3.69q4.12 0 6.82-1.08 2.69-1.07 4.4-3.43 1.67-2.34 2.14-5.7l-5-1.34q-.47 2.42-1.41 4.34-.99 1.93-2.77 2.72-1.79.8-4.18.8"></path><rect width="28.27" height="33.2" x="-14.13" y="-16.6" fill="none" rx="0" ry="0" transform="translate(459.8 716.8)"></rect><path fill="#181a2b" d="M498.49 715.218h5.55q0-8.05-2.16-11.75-2.16-3.7-7.71-3.7-5.39 0-8.58 2.94-3.19 2.94-3.19 7.12l2.14 1.57q0-3 2.04-5.38 2.03-2.37 5.58-2.37 3.11 0 4.72 2.43 1.61 2.43 1.61 9.14m-19.47 17.41h5.55v-26.29l-1.18-6.3h-4.37Z"></path><rect width="25.02" height="32.86" x="-12.51" y="-16.43" fill="none" rx="0" ry="0" transform="translate(492.03 716.7)"></rect><path fill="#181a2b" d="M522.55 732.908v-3.69q-4.18 0-6.52-3.05-2.36-3-2.36-9.9 0-7.29 2.44-10.09 2.42-2.78 6.36-2.78 4.04 0 6.29 2.64 1.96 2.47 2.18 8.47h-17.88v3.46h23.38q.11-.82.11-1.78 0-8.17-3.25-12.32-3.27-4.16-10.83-4.16-7.35 0-10.76 4.16-3.43 4.12-3.43 12.4 0 7.81 3.35 12.24 3.33 4.4 10.92 4.4m0-3.69v3.69q4.12 0 6.82-1.08 2.69-1.07 4.4-3.43 1.68-2.34 2.14-5.7l-5-1.34q-.47 2.42-1.4 4.34-.99 1.93-2.78 2.72-1.79.8-4.18.8"></path><rect width="28.27" height="33.2" x="-14.13" y="-16.6" fill="none" rx="0" ry="0" transform="translate(522.91 716.8)"></rect><path fill="#181a2b" d="M563.52 732.628h5.17v-43.17h-5.52v37.81Zm-10.67.22q5.34 0 9.02-2.68 3.69-2.68 3.69-5.57l-2.39-3q0 2.86-2.49 5.12-2.49 2.25-5.96 2.25-3.68 0-5.83-2.68-2.14-2.68-2.14-9.99 0-7.32 2.14-10 2.15-2.68 5.83-2.68 3.47 0 5.96 2.24 2.49 2.24 2.49 5.07l2.39-2.91q0-2.92-3.69-5.6-3.68-2.68-9.02-2.68-5.85 0-8.78 4.1-2.93 4.1-2.93 12.43t2.93 12.46q2.93 4.12 8.78 4.12"></path><rect width="27.55" height="43.39" x="-13.78" y="-21.7" fill="none" rx="0" ry="0" transform="translate(555.41 711.65)"></rect><path fill="#181a2b" d="M587.89 732.628h21.89v-3.88H593.5v-33.24h-5.61Z"></path><rect width="21.89" height="37.12" x="-10.95" y="-18.56" fill="none" rx="0" ry="0" transform="translate(599.34 714.57)"></rect><path fill="#181a2b" d="M615.77 732.628h5.59v-32.61h-5.59Zm0-41.52v4.92h5.59v-4.92Z"></path><rect width="5.59" height="41.52" x="-2.79" y="-20.76" fill="none" rx="0" ry="0" transform="translate(619.07 712.37)"></rect><path fill="#181a2b" d="M641.21 745.388q4.24 0 7.15-1.22 2.92-1.23 4.8-4.24 1.88-3.01 1.88-8.23v-31.66h-4.15l-1.43 6.66v25.52q0 5.64-2.2 7.62-2.2 1.98-5.86 1.98-2.22 0-3.94-.73-1.72-.73-2.7-2.29-.97-1.55-1.17-4.13h-5.47q.44 5.91 4.09 8.31 3.64 2.41 9 2.41m-2.01-12.54q5.34 0 9.02-2.64 3.69-2.64 3.69-5.61l-2.45-3q0 2.86-2.49 5.12-2.49 2.25-5.95 2.25-3.69 0-5.83-2.68-2.15-2.68-2.15-9.99 0-7.32 2.15-10 2.14-2.68 5.83-2.68 3.46 0 5.95 2.24t2.49 5.07l2.39-2.8q0-2.89-3.68-5.64-3.69-2.75-9.02-2.75-5.86 0-8.79 4.1-2.93 4.1-2.93 12.43t2.96 12.46q2.96 4.12 8.81 4.12"></path><rect width="27.61" height="45.65" x="-13.8" y="-22.82" fill="none" rx="0" ry="0" transform="translate(641.74 723.06)"></rect><path fill="#181a2b" d="M661.37 732.628h5.58v-43.17h-5.58Zm20.51 0h5.56v-18.81q0-6.68-2.43-10.39-2.44-3.72-8.08-3.72-5.69 0-9.22 3.55-3.54 3.55-3.54 7.56l2.67 1.71q0-3.85 2.31-6.38t5.78-2.53q3.43 0 5.19 2.36 1.76 2.37 1.76 8.03Z"></path><rect width="26.07" height="43.17" x="-13.04" y="-21.59" fill="none" rx="0" ry="0" transform="translate(674.9 711.54)"></rect><path fill="#181a2b" d="M706.88 732.988q3.03 0 5.78-.69v-3.77q-1.9.64-3.91.64-2.25 0-3.49-.97-1.24-.96-1.24-3.96v-20.29h10.78v-3.91h-10.78v-7.37h-5.58v7.37h-7.62v3.91h7.62v21.59q0 4.29 2.42 5.87t6.02 1.58"></path><rect width="23.98" height="40.32" x="-11.99" y="-20.16" fill="none" rx="0" ry="0" transform="translate(703.31 713.33)"></rect><path fill="#172e31" d="M438.154 287.481v-55.396a35.444 35.444 0 0 1-24.123-21.206l-3.024-7.584a23.933 23.933 0 0 0-22.344-15.122c-6.428 0-12.477 2.501-17.018 7.042l-14.743 14.752-14.752-14.752a23.915 23.915 0 0 0-17.018-7.042 23.942 23.942 0 0 0-22.344 15.122l-3.024 7.575a35.435 35.435 0 0 1-24.123 21.215v55.396c0 44.806 36.446 81.252 81.252 81.252s81.261-36.446 81.261-81.252m-90.28-63.196h18.056v18.056h-18.056zm-36.112 45.14a9.028 9.028 0 1 1 0-18.056 9.028 9.028 0 0 1 0 18.056m45.14 72.224c-19.916 0-36.112-16.196-36.112-36.112h18.056c0 9.958 8.098 18.056 18.056 18.056s18.056-8.098 18.056-18.056h18.056c0 19.916-16.196 36.112-36.112 36.112m45.14-72.224a9.028 9.028 0 1 1 0-18.056 9.028 9.028 0 0 1 0 18.056M275.65 97.893a27.084 27.084 0 0 0 14.824-49.744c1.67 9.57.28 20.322-8.441 29.043-9.02 9.019-18.842 11.457-27.635 10.391a27.057 27.057 0 0 0 21.252 10.31"></path><path fill="#172e31" d="M248.566 404.845h10.69a26.777 26.777 0 0 1-1.662-9.028c0-14.932 12.152-27.084 27.084-27.084h15.302c-25.594-17.984-42.386-47.668-42.386-81.252v-90.28h18.056v15.456c3.232-1.94 5.877-4.812 7.349-8.495l3.024-7.566a41.935 41.935 0 0 1 39.11-26.479c11.248 0 21.83 4.379 29.783 12.332l1.986 1.987 1.986-1.987a41.845 41.845 0 0 1 29.784-12.332 41.917 41.917 0 0 1 39.109 26.48l3.024 7.574c1.472 3.683 4.126 6.554 7.349 8.486v-15.456h18.056v90.28c0 33.584-16.801 63.268-42.386 81.252h15.302c14.932 0 27.084 12.152 27.084 27.084 0 3.178-.65 6.193-1.661 9.028h19.717c8.098 0 15.293 3.648 20.259 9.29l1.155.235c.723.144 1.373.442 2.086.614a439.664 439.664 0 0 1-32.528-165.24v-34.478c0-59.738-48.598-108.336-108.336-108.336s-108.336 48.598-108.336 108.336v34.478c0 27.445-2.735 54.927-7.881 81.866a26.994 26.994 0 0 1 7.881 19.067zM410.257 52.753c-4.315-25.576-26.56-45.14-53.355-45.14-21.207 0-40.4 12.676-49.14 31.544a45.263 45.263 0 0 1 9.2 13.596zm-93.295 36.112h103.136a9.028 9.028 0 0 0 0-18.056H320.79c0 6.428-1.39 12.522-3.828 18.056"></path><path fill="#172e31" d="M284.678 386.79a9.028 9.028 0 0 0 0 18.055h144.448a9.028 9.028 0 0 0 0-18.056zm-86.705 58.338a45.275 45.275 0 0 0-12.603 31.21v54.9h54.168v-72.225h-18.056a26.994 26.994 0 0 1-23.509-13.885"></path><path fill="#172e31" d="M212.454 359.705v72.224a9.028 9.028 0 0 0 9.028 9.028h252.784a9.028 9.028 0 0 0 0-18.056H230.51v-72.224a9.028 9.028 0 0 0-9.028-9.028H185.37a9.028 9.028 0 0 0 0 18.056zm288.589 75.249a27.02 27.02 0 0 1-26.777 24.06v72.223h54.168v-54.9c0-18.254-11.122-34.369-27.391-41.383m-243.449 42.115h27.084v18.056h-27.084v36.112H456.21v-9.028h-27.084v-18.056h27.084v-45.14H257.594zm108.336 0h36.112v18.056H365.93zm-54.168 27.084h36.112v18.056h-36.112z"></path></svg></svg>